<svg xmlns="http://www.w3.org/2000/svg" width="512" height="512" viewBox="0 0 512 512"><title>Mr. Owl</title><defs><linearGradient id="feathers" x2="0.8" y2="1"><stop stop-color="#cfb4ff"/><stop offset="1" stop-color="#9561d5"/></linearGradient></defs><rect x="12" y="12" width="488" height="488" rx="116" fill="#24162f"/><path d="M105 112l84 42a184 184 0 01134 0l84-42-15 130c27 119-36 204-136 204S93 361 120 242z" fill="url(#feathers)"/><path d="M128 263c-8 78 25 122 69 143l-30-133zm256 0c8 78-25 122-69 143l30-133z" fill="#70449c"/><path d="M256 217c-69-82-146-12-112 68 19 44 74 80 112 103 38-23 93-59 112-103 34-80-43-150-112-68z" fill="#f3e8ff"/><g fill="#fff7ff" stroke="#3e2556" stroke-width="14"><circle cx="199" cy="244" r="48"/><circle cx="313" cy="244" r="48"/></g><path d="M247 244h18" stroke="#3e2556" stroke-width="13"/><g fill="#24162f"><ellipse cx="207" cy="245" rx="16" ry="23"/><ellipse cx="305" cy="245" rx="16" ry="23"/></g><g fill="#fff"><circle cx="212" cy="237" r="6"/><circle cx="310" cy="237" r="6"/></g><path d="M238 287h36l-18 27z" fill="#ff707d"/><path d="M231 337l7 8m18-6v10m18-12l-7 8" stroke="#b58aff" stroke-width="7" stroke-linecap="round"/><path d="M201 434v17m17-17v17m76-17v17m17-17v17" stroke="#ff707d" stroke-width="10" stroke-linecap="round"/></svg>